<svg width="100.00000000000001" height="100.00000000000001" xmlns="http://www.w3.org/2000/svg">

 <g>
  <title>background</title>
  <rect fill="none" id="canvas_background" height="602" width="802" y="-1" x="-1"/>
 </g>
 <g>
  <title>Layer 1</title>
  <rect id="svg_2" height="35.39051" width="38.79629" y="31.7055" x="32.45282" stroke-opacity="null" stroke-width="null" stroke="null" fill="#ffffff"/>
  <path d="m95,57.35335c2.34009,-2.58 5,-5.5 5,-9.36c0,-3.85 -2.65991,-6.77 -5,-9.35c-1.35,-1.48 -2.74,-3.01 -3.13989,-4.25c-0.44007,-1.34 -0.21009,-3.48 0.01,-5.54c0.35986,-3.4 0.77,-7.25 -1.42005,-10.25c-2.20007,-3.03 -6.01,-3.83 -9.38,-4.53c-2.01,-0.42 -4.09009,-0.86 -5.21,-1.67c-1.09009,-0.8 -2.13013,-2.62 -3.14014,-4.39c-1.71,-3 -3.65991,-6.41 -7.2699,-7.58c-3.47009,-1.13 -6.9801,0.44 -10.06994,1.82c-1.92017,0.86 -3.91016,1.75 -5.38013,1.75s-3.46,-0.89 -5.37988,-1.75c-3.09009,-1.38 -6.6001,-2.95 -10.07007,-1.82c-3.61,1.17 -5.55,4.58 -7.27,7.58c-1.01,1.77 -2.05,3.59 -3.13989,4.39c-1.12012,0.81 -3.20008,1.25 -5.21009,1.67c-3.36,0.7 -7.18005,1.5 -9.38,4.53c-2.17993,3 -1.77,6.85 -1.40991,10.25c0.22,2.06 0.43994,4.2 0.00988,5.54c-0.41,1.24 -1.79992,2.77 -3.14,4.25c-2.35,2.58 -5.01,5.5 -5.01,9.35c0,3.86 2.66,6.78 5.01,9.36c1.34009,1.48 2.73,3.01 3.14,4.24c0.43006,1.35 0.21009,3.48 -0.00988,5.55c-0.36011,3.4 -0.77,7.25 1.40991,10.25c2.19995,3.03 6.02,3.83 9.38,4.53c2.01,0.42 4.09,0.86 5.21009,1.67c1.08984,0.8 2.12988,2.62 3.13989,4.39c1.71,3 3.66,6.41 7.27,7.58c3.47,1.13 6.98,-0.44 10.07007,-1.82c1.91992,-0.86 3.90991,-1.75 5.37988,-1.75s3.46,0.89 5.38013,1.75c2.34985,1.05 4.93994,2.21 7.56994,2.21a8.0494,8.0494 0 0 0 2.5,-0.39c3.61,-1.17 5.55994,-4.58 7.2699,-7.59c1.01,-1.76 2.05,-3.58 3.14014,-4.38c1.11987,-0.81 3.19995,-1.25 5.21,-1.67c3.37,-0.7 7.17993,-1.5 9.38,-4.53c2.19007,-3 1.77991,-6.85 1.41,-10.26c-0.21009,-2.06 -0.44007,-4.19 0,-5.54c0.39994,-1.22999 1.78994,-2.76002 3.13994,-4.24zm-48.27,2.01l-11.96,-11.96l4.24,-4.24l7.72,7.72l14.26,-14.26l4.24,4.25l-18.5,18.49z" fill-rule="evenodd" fill="#7289DA" id="svg_1"/>
 </g>
</svg>